# xmcd CD database file
#
# Track frame offsets:
#	150
#	14144
#	45753
#	71814
#	92159
#	114413
#	130481
#	149473
#	178205
#	188362
#	211258
#	232213
#
# Disc length: 3355 seconds
#
# Revision: 0
# Processed by: cddbd v1.5.2PL0 Copyright (c) Steve Scherf et al.
# Submitted via: CDex 1.51
#
DISCID=b00d190c
DTITLE=Yusuke Shima - Silent Jazz Case
DYEAR=2010
DGENRE=Jazz
TTITLE0=Silent Loop
TTITLE1=Try Out - Yusuke Shima feat. Yusuke Hirado (quasimode)
TTITLE2=Pouring Rain - Yusuke Shima feat. Karen Aoki
TTITLE3=Modal Bossa
TTITLE4=Red Cool - Yusuke Shima feat. kubota (JiLL-Decoy association)
TTITLE5=In Out - Yusuke Shima feat. Nice Hashimoto
TTITLE6=Hips Kicks - Yusuke Shima feat. Jun Sakuma
TTITLE7=Pure White Picture - Yusuke Shima feat. Kazuma Fujimoto (orange pekoe)
TTITLE8=Silent Loop 2
TTITLE9=High Speed Brew - Yusuke Shima feat. Iori Kimura (bohemianvoodoo)
TTITLE10=Syunkan - Yusuke Shima feat. Misa Sugiyama, Hiddy (The Novelestilo) 
TTITLE11=Bop Roots
EXTD=YEAR: 2010
EXTT0=
EXTT1=
EXTT2=
EXTT3=
EXTT4=
EXTT5=
EXTT6=
EXTT7=
EXTT8=
EXTT9=
EXTT10=
EXTT11=
PLAYORDER=
